<?xml version="1.0" encoding="utf-8"?>
<!-- Generator: Adobe Illustrator 21.1.0, SVG Export Plug-In . SVG Version: 6.00 Build 0)  -->
<svg version="1.1" id="Layer_1" xmlns="http://www.w3.org/2000/svg" xmlns:xlink="http://www.w3.org/1999/xlink" x="0px" y="0px"
	 viewBox="0 0 368.7 82.2" style="enable-background:new 0 0 368.7 82.2;" xml:space="preserve">
<style type="text/css">
	.st0{fill:#1D191A;}
	.st1{fill:#0067BA;}
</style>
<title>logo-totalplay-b</title>
<path class="st0" d="M222.8,28.4c1.8-1.3,3.9-1.9,6.1-1.9c1.6,0,3.1,0.4,4.6,1.2c1.5,0.8,2.8,2,3.9,3.5h0.6c0.5-2.1,0.9-3.9,1.3-5.3
	c-0.8-0.6-2.3-1.2-4.2-1.7c-2-0.6-4.2-0.8-6.7-0.8c-2.8,0-5.7,0.5-8.7,1.6s-5.6,3.1-7.9,6c-2.3,3-3.4,7-3.5,12.1
	c0,2.3,0.4,4.4,1.3,6.5c0.9,2.1,2.2,3.9,3.8,5.5c1.7,1.6,3.7,2.8,6.1,3.8c2.4,0.9,5.1,1.4,8.1,1.4c4.2,0,7.5-0.7,10.2-2.2l1.2-4.4
	l-0.7-0.3c-1.1,1.2-2.5,2.1-4.3,2.8c-1.7,0.7-3.3,1-4.8,1c-2.7,0-4.9-0.6-6.8-1.9c-1.9-1.3-3.3-3.1-4.2-5.3
	c-0.9-2.3-1.4-4.8-1.4-7.7c0-3.3,0.5-6.1,1.6-8.4C219.5,31.5,221,29.6,222.8,28.4z M112.6,24.3v35h19.6c-0.1-0.7-0.2-1.4-0.4-2
	c0.1-0.6,0.3-1.5,0.4-2.4c-3.8,0.5-7.8,0.7-11.9,0.7v-13h5.4c2.5,0,4.6,0.2,6.2,0.5c-0.1-0.7-0.2-1.4-0.3-2.1c0-0.3,0-0.6,0.1-1.1
	c0-0.4,0.2-0.9,0.2-1.4c-1.3,0.3-3,0.4-4.9,0.4h-6.7v-11h1.7c3.2,0,6.6,0.2,10.1,0.7c-0.2-0.9-0.3-1.6-0.4-2.1
	c0.2-1.1,0.3-1.8,0.4-2.3h-19.5V24.3z M162.9,43.7v12.1c-2,1-4.2,1.5-6.3,1.6c-2.2,0-4.2-0.6-5.9-1.9c-1.8-1.2-3.2-2.9-4.2-5.1
	c-1-2.2-1.6-4.7-1.6-7.5c0.1-2.6,0.5-4.9,1.1-6.9c0.6-2.1,1.5-3.7,2.6-5.2c1.1-1.4,2.4-2.5,4-3.2c1.5-0.7,3.2-1.1,5.1-1.1
	c1.8,0,3.6,0.4,5.5,1.2c1.8,0.8,3.3,2.2,4.6,4.1h0.7c0.1-0.6,0.2-1.4,0.5-2.5s0.6-2,0.9-2.7c-3.6-2.1-7.7-3.1-12.5-3.1
	c-3.9,0-7.2,0.7-9.9,1.8c-2.7,1.2-4.9,2.7-6.5,4.5c-1.6,1.9-2.8,4-3.5,6.2c-0.7,2.3-1.1,4.5-1.1,6.8c0,3.2,0.6,5.9,1.8,8.2
	c1.2,2.3,2.8,4.1,4.8,5.4c2,1.4,4.2,2.4,6.6,3s4.8,0.9,7.1,0.9c4.3,0,8.8-0.8,13.7-2.3V43.7c-1.4,0.2-2.7,0.3-3.9,0.3
	C165.4,44,164.2,43.9,162.9,43.7z M191.2,24c-0.3-0.1-0.6-0.1-0.9-0.1c-0.4,0-0.6,0-1-0.1l-0.1,0.3l-14.5,35.4
	c0.3-0.1,0.6-0.1,1.2-0.1c0.5,0,0.8,0,1.1-0.1c0.3,0.1,0.8,0.1,1.3,0.1c0.6,0.1,1,0.1,1.3,0.1c0.3-1,0.6-2,0.9-3
	c0.4-1,0.8-2.4,1.5-4.2s1.1-3,1.3-3.5h12c1.4,3.5,2.5,7.1,3.6,10.6c0.5-0.1,1.2-0.1,2.2-0.1c0.9,0,1.6,0,2-0.1
	c0.6,0.1,1.3,0.1,2.3,0.1c1,0.1,1.8,0.1,2.4,0.1l-14.3-35.7C193,23.8,192.4,23.9,191.2,24z M184.5,45.7l4.7-11.7l0.1-0.3l4.6,11.9
	L184.5,45.7L184.5,45.7z M104.4,41.6c-0.4-2.8-0.6-5.5-0.9-7.9c-0.3-2.4-0.6-5.6-1-9.4c-0.8,0.1-1.6,0.2-2.1,0.3
	c-1.1-0.1-1.8-0.2-2.2-0.3c-1,2-2,4.2-3.2,6.5c-1.1,2.4-2.1,4.3-2.9,5.9s-1.7,3.4-2.8,5.5c-1,2.1-2.1,4.2-3.2,6.3
	C80.9,38.1,77,30,74.3,24.3c-0.4,0-1.1,0.1-2.1,0.3c-0.2,0-0.5-0.1-1-0.1c-0.4,0-0.8-0.1-1.2-0.1c-0.8,5.9-1.6,12-2.5,18.2
	c-1,6.2-1.9,11.9-2.8,17.1c0.5-0.1,1.3-0.2,2.4-0.3c0.5,0.1,0.9,0.2,1.2,0.2c0.3,0.1,0.7,0.1,1.2,0.2c0-1.8,0.1-4,0.4-6.6
	c0.2-2.7,0.5-5.6,0.8-8.7c0.4-3.2,0.7-5.9,1-8.1c0.6,1.2,1.4,2.9,2.5,5.1c1,2.2,1.9,4.1,2.6,5.5s1.7,3.5,3.1,6.3s2.4,4.9,3,6.2h1.9
	c3.4-7.4,7.2-15.4,11.3-23.7c0.2,2,0.5,4.2,0.7,6.9c0.3,2.7,0.5,4.7,0.7,6.1s0.3,3.1,0.5,5.1s0.3,4,0.3,5.9c1.4-0.2,2.8-0.3,4.2-0.3
	c1.5,0,2.8,0.1,4.2,0.3c-0.5-3.4-1-6.5-1.3-9.5C105.1,47.3,104.8,44.4,104.4,41.6z M258.6,24c-0.3-0.1-0.6-0.1-0.9-0.1
	c-0.3,0-0.6,0-1-0.1l-0.1,0.3l-14.5,35.4c0.3-0.1,0.6-0.1,1.1-0.1s0.8,0,1.1-0.1c0.3,0.1,0.8,0.1,1.3,0.1c0.6,0.1,1,0.1,1.3,0.1
	c0.3-1,0.6-2,0.9-3c0.4-1,0.8-2.4,1.5-4.2s1.1-3,1.3-3.5h12c1.4,3.5,2.5,7.1,3.6,10.6c0.5-0.1,1.2-0.1,2.1-0.1c0.9,0,1.6,0,2.1-0.1
	c0.6,0.1,1.4,0.1,2.3,0.1c1,0.1,1.8,0.1,2.4,0.1l-14.3-35.7C260.4,23.8,259.7,23.9,258.6,24z M251.9,45.7l4.7-11.7l0.1-0.3l4.6,11.9
	L251.9,45.7L251.9,45.7z M336.5,24.3v35H356c-0.1-0.7-0.2-1.4-0.3-2c0.1-0.6,0.2-1.5,0.4-2.4c-3.9,0.5-7.8,0.7-11.9,0.7v-13h5.4
	c2.5,0,4.6,0.2,6.2,0.5c-0.1-0.7-0.2-1.4-0.3-2.1c0-0.3,0.1-0.6,0.1-1.1c0.1-0.4,0.2-0.9,0.2-1.4c-1.3,0.3-2.9,0.4-4.9,0.4h-6.6v-11
	h1.7c3.2,0,6.6,0.2,10.1,0.7c-0.1-0.9-0.2-1.6-0.3-2.1c0.2-1.1,0.3-1.8,0.4-2.3h-19.7V24.3z M318.7,55.7V24.3
	c-0.6,0-1.4,0.1-2.4,0.1c-0.9,0.1-1.4,0.1-1.5,0.1c-1.2-0.1-2.4-0.2-3.8-0.3v35h19.4c-0.1-0.8-0.2-1.5-0.3-2.1
	c0.1-0.9,0.3-1.7,0.4-2.3C326,55.4,322,55.7,318.7,55.7z M299.8,41.9c-1.4-0.6-2.9-0.9-4.5-1.1v-0.5c5.4-1,8.2-3.7,8.4-8.1
	c0-1.6-0.4-2.9-1.2-4.2c-0.8-1.2-1.9-2.1-3.4-2.7s-3.2-0.9-5-0.9h-13.9v35h12c1.8-0.1,3.5-0.3,5-0.7c1.6-0.5,3-1.3,4.1-2.2
	c1.1-1,1.9-2,2.4-3.2c0.6-1.3,0.8-2.6,0.8-4c0-1.9-0.5-3.5-1.4-4.7C302.2,43.3,301.1,42.5,299.8,41.9z M287.9,27.3
	c0.9-0.1,1.6-0.2,2.3-0.2s1.4,0.1,2,0.2c2.6,0.6,3.8,2.4,3.8,5.4c0,1.2-0.2,2.2-0.6,3.2c-0.4,1-1,1.8-1.8,2.4
	c-0.4,0.3-0.9,0.6-1.5,0.8c-0.4,0.2-0.9,0.3-1.4,0.3c-0.5,0.1-1.5,0.1-2.9,0.1V27.3H287.9z M295.5,53.2c-0.6,1-1.3,1.7-2.2,2.3
	c-0.4,0.3-0.8,0.4-1.2,0.6c-0.5,0.2-0.9,0.3-1.4,0.3h-2.9V42.5h1.5c1.1,0,2,0.1,2.8,0.3c2.9,0.8,4.3,3.1,4.3,6.8
	C296.4,51,296.1,52.1,295.5,53.2z M366.4,55.6c-0.4-0.6-0.9-1.2-1.5-1.5c-0.6-0.4-1.3-0.6-2-0.6s-1.4,0.2-2,0.6
	c-0.6,0.3-1.2,0.8-1.5,1.5c-0.4,0.6-0.6,1.3-0.6,2s0.2,1.4,0.5,2c0.4,0.6,0.9,1.2,1.5,1.5c0.6,0.4,1.3,0.6,2,0.6s1.3-0.2,2-0.6
	c0.7-0.3,1.2-0.8,1.5-1.5c0.3-0.6,0.5-1.3,0.5-2C366.9,57,366.7,56.3,366.4,55.6z M365.8,59.4c-0.3,0.5-0.7,0.9-1.2,1.2
	c-0.6,0.3-1.1,0.4-1.7,0.4c-0.6,0-1.2-0.1-1.7-0.4c-0.5-0.3-0.9-0.7-1.2-1.2c-0.3-0.6-0.5-1.1-0.5-1.7c0-0.6,0.2-1.2,0.5-1.7
	s0.7-0.9,1.3-1.2c0.5-0.3,1.1-0.4,1.7-0.4c0.6,0,1.1,0.1,1.7,0.4c0.5,0.3,0.9,0.7,1.2,1.2c0.3,0.6,0.5,1.1,0.5,1.7
	C366.3,58.2,366.1,58.8,365.8,59.4z M363.6,58.2c-0.1-0.1-0.2-0.2-0.4-0.3c0.4,0,0.7-0.1,0.9-0.4c0.2-0.2,0.4-0.5,0.4-0.8
	c0-0.2-0.1-0.5-0.2-0.6c-0.2-0.2-0.3-0.3-0.6-0.4c-0.2-0.1-0.5-0.1-0.8-0.1h-1.8V60h0.7v-1.9h0.4c0.3,0,0.5,0.1,0.6,0.1l0.1,0.1
	c0.1,0.1,0.4,0.5,0.6,0.9l0.4,0.7h0.8l-0.5-0.9C364,58.6,363.8,58.3,363.6,58.2z M362.7,57.5h-0.9v-1.3h1.1c0.2,0,0.3,0,0.4,0.1
	c0.1,0,0.2,0.1,0.3,0.2c0.1,0.1,0.1,0.2,0.1,0.3c0,0.2-0.1,0.4-0.2,0.5c-0.1,0.1-0.3,0.1-0.6,0.1L362.7,57.5z"/>
<path class="st1" d="M30.6,14.9C15,14.9,2.4,27.5,2.4,43.1c0,4,0.8,7.8,2.3,11.2C4.5,44.5,7.8,34.9,14,27.5c2.4,0.4,4.3,1.9,5.2,3.9
	c-6.8,7.2-11.3,16.2-13,25.9c0.6,1.1,1.4,2.1,2.2,3.1c2.8-15.9,13.8-29.7,29.3-35.6c3.8,1.6,6.6,4.7,7.8,8.5
	C29.4,37.4,17,49,11.2,63.5c0.7,0.6,1.4,1.3,2.2,1.8c5.2-11,14.7-19.7,26.2-24c3,1.6,4.8,4.6,5,7.9c-11.5,2.6-21.4,9.1-28.5,18
	c4.3,2.6,9.2,4.1,14.6,4.1c15.6,0,28.2-12.6,28.2-28.1C58.8,27.5,46.2,14.9,30.6,14.9z"/>
</svg>
