<?xml version="1.0"?>
<svg xmlns="http://www.w3.org/2000/svg" xmlns:xlink="http://www.w3.org/1999/xlink" xmlns:svgjs="http://svgjs.com/svgjs" version="1.1" width="512" height="512" x="0" y="0" viewBox="0 0 512 512" style="enable-background:new 0 0 512 512" xml:space="preserve" class=""><g><g xmlns="http://www.w3.org/2000/svg"><path d="m280.276 197.177c49.287 0 96.529-37.901 96.529-100.648.001-53.226-43.302-96.529-96.529-96.529h-183.691c-49.287 0-96.529 37.901-96.529 100.648 0 48.126 35.4 88.139 81.529 95.366v64.146c0 13.766 17.081 20.215 26.2 9.977l64.993-72.96zm-125.425-24.977-43.267 48.571v-38.594c0-8.284-6.716-15-15-15-36.685 0-66.53-29.845-66.53-66.53 0-44.253 31.964-70.649 66.53-70.649h183.691c36.685 0 66.53 29.845 66.53 66.53 0 44.253-31.965 70.649-66.53 70.649h-114.223c-4.279.001-8.355 1.829-11.201 5.023z" fill="#0063bc" data-original="#000000" style="" class=""/><circle cx="96.977" cy="98.589" r="18.582" fill="#0063bc" data-original="#000000" style="" class=""/><ellipse cx="188.431" cy="98.589" rx="18.582" ry="18.582" transform="matrix(.383 -.924 .924 .383 25.238 234.948)" fill="#0063bc" data-original="#000000" style="" class=""/><circle cx="279.884" cy="98.589" r="18.582" fill="#0063bc" data-original="#000000" style="" class=""/><path d="m415.415 236.828h-183.691c-49.043 0-96.529 37.674-96.529 100.648 0 53.226 43.303 96.529 96.529 96.529h107.498l64.993 72.96c9.156 10.277 26.2 3.76 26.2-9.977v-64.146c46.129-7.227 81.529-47.24 81.529-95.366 0-62.285-46.867-100.648-96.529-100.648zm66.53 100.648c0 36.685-29.845 66.53-66.53 66.53-8.284 0-15 6.716-15 15v38.594l-43.267-48.571c-2.846-3.195-6.922-5.022-11.2-5.022h-114.224c-36.685 0-66.53-29.845-66.53-66.53 0-44.253 31.965-70.649 66.53-70.649h183.691c33.537-.001 66.53 25.307 66.53 70.648z" fill="#0063bc" data-original="#000000" style="" class=""/><ellipse cx="415.023" cy="335.416" rx="18.582" ry="18.582" transform="matrix(.383 -.924 .924 .383 -53.684 590.489)" fill="#0063bc" data-original="#000000" style="" class=""/><circle cx="323.569" cy="335.416" r="18.582" fill="#0063bc" data-original="#000000" style="" class=""/><ellipse cx="232.116" cy="335.416" rx="18.582" ry="18.582" transform="matrix(.987 -.16 .16 .987 -50.731 41.512)" fill="#0063bc" data-original="#000000" style="" class=""/></g></g></svg>
